<svg xmlns="http://www.w3.org/2000/svg" viewBox="0 0 370.3170731707317 31.878729132165336">
    <defs id="SvgjsDefs3138"></defs>
    <g id="SvgjsG3139" featurekey="2ou6gm-0"
        transform="matrix(0.5518024213424926,0,0,0.5518024213424926,-6.6084846384613165,-11.65958575235544)"
        fill="#111111">
        <path xmlns="http://www.w3.org/2000/svg"
            d="M55.739,48.002c-0.297-0.289-0.771-0.283-1.061,0.013l-9.307,9.529l9.307,9.53c0.146,0.15,0.341,0.226,0.536,0.226  c0.189,0,0.378-0.071,0.524-0.213c0.296-0.29,0.302-0.764,0.012-1.061l-8.283-8.482l8.283-8.481  C56.041,48.767,56.035,48.292,55.739,48.002z">
        </path>
        <path xmlns="http://www.w3.org/2000/svg"
            d="M69.011,48.015c-0.288-0.296-0.763-0.302-1.061-0.013c-0.296,0.29-0.302,0.765-0.012,1.061l8.285,8.481l-8.285,8.482  c-0.29,0.296-0.284,0.771,0.012,1.061c0.146,0.143,0.335,0.213,0.524,0.213c0.194,0,0.39-0.076,0.536-0.226l9.311-9.53  L69.011,48.015z">
        </path>
        <path xmlns="http://www.w3.org/2000/svg"
            d="M65.095,48.07c-0.261-0.096-0.547,0.036-0.643,0.295l-6.741,18.219c-0.096,0.259,0.036,0.546,0.295,0.642  c0.058,0.021,0.116,0.031,0.174,0.031c0.203,0,0.395-0.125,0.469-0.327l6.741-18.219C65.485,48.454,65.354,48.166,65.095,48.07z">
        </path>
        <path xmlns="http://www.w3.org/2000/svg"
            d="M86.749,26.575H44.48l-0.897-3.086c-0.478-1.565-1.334-2.359-2.545-2.359H21.095c-1.422,0-2.579,1.157-2.579,2.579v15.866  h1.5V23.708c0-0.595,0.484-1.079,1.079-1.079h19.943c0.231,0,0.714,0,1.108,1.288l1.052,3.617c0.093,0.32,0.386,0.541,0.72,0.541  h42.831c0.595,0,1.079,0.484,1.079,1.078v32.659l-2.427-23.414c-0.009-0.087-0.033-0.172-0.071-0.25  c-0.154-0.318-0.367-0.615-0.613-0.858c-0.508-0.502-1.154-0.774-1.88-0.786l-43.187-0.02c-0.334,0-0.627,0.22-0.721,0.541  l-0.855,2.947c-0.542,1.755-1.396,1.958-1.991,1.958l-23.357,0.03c-0.214,0-0.417,0.092-0.56,0.252  c-0.143,0.16-0.209,0.373-0.185,0.585l3.918,33.526c0,1.422,1.157,2.579,2.579,2.579h68.271c1.422,0,2.579-1.157,2.575-2.656  l-0.113-1.09h0.117V29.153C89.328,27.732,88.171,26.575,86.749,26.575z M86.749,77.403H18.479c-0.595,0-1.079-0.484-1.084-1.166  L13.569,43.46l22.515-0.029c1.137,0,2.654-0.523,3.428-3.028l0.702-2.418l42.611,0.02c0.329,0.005,0.603,0.12,0.838,0.353  c0.098,0.097,0.188,0.214,0.261,0.34l3.904,37.627C87.828,76.919,87.344,77.403,86.749,77.403z">
        </path>
    </g>
    <g id="SvgjsG3140" featurekey="kZnDdN-0"
        transform="matrix(1.488218162045156,0,0,1.488218162045156,62.10706995433817,-3.5721369540062042)"
        fill="#111111">
        <path
            d="M19.52 6 l-4.52 14 l-1.08 0 l-3.86 -10.94 l-3.84 10.94 l-1.08 0 l-4.54 -14 l1.72 0 l3.42 10.58 l3.74 -10.58 l1.16 0 l3.76 10.58 l3.42 -10.58 l1.7 0 z M30.1 6 l1.66 0 l0 14 l-1.66 0 l0 -6.12 l-7.12 0 l0 6.12 l-1.66 0 l0 -14 l1.66 0 l0 6.32 l7.12 0 l0 -6.32 z M35.82 6 l0 14 l-1.66 0 l0 -14 l1.66 0 z M47.260000000000005 6 l0 1.56 l-3.88 0 l0 12.44 l-1.66 0 l0 -12.44 l-3.9 0 l0 -1.56 l9.44 0 z M50.92 18.44 l6.66 0 l0 1.56 l-7.06 0 l-1.26 0 l0 -14 l1.66 0 l6.48 0 l0 1.56 l-6.48 0 l0 4.64 l5.04 0 l0 1.52 l-5.04 0 l0 4.72 z M63.980000000000004 5.76 c2.18 0 3.78 1.44 4.38 2.94 l-1.26 0.68 c-0.64 -1.28 -1.66 -2.12 -3.12 -2.12 c-1.54 0 -2.6 0.88 -2.6 2.1 c0 1.14 0.72 1.86 2.24 2.44 l1.02 0.38 c2.52 0.94 4.1 2.02 4.1 4.24 c0 2.4 -2.3 3.88 -4.68 3.88 s-4.34 -1.44 -4.88 -3.44 l1.34 -0.64 c0.48 1.48 1.74 2.56 3.54 2.56 c1.6 0 2.96 -0.92 2.96 -2.34 c0 -1.6 -1.12 -2.2 -2.78 -2.84 l-1.04 -0.4 c-2.12 -0.8 -3.48 -1.9 -3.48 -3.88 c0 -2.04 1.8 -3.56 4.26 -3.56 z M75.2 6 c3.14 0 4.96 1.92 4.96 4.52 s-1.82 4.44 -4.96 4.44 l-2.9 0 l0 5.04 l-1.66 0 l0 -14 l4.56 0 z M75.16 13.48 c2.02 0 3.34 -1.04 3.34 -2.96 c0 -1.94 -1.32 -2.96 -3.34 -2.96 l-2.86 0 l0 5.92 l2.86 0 z M93.38 20 l-1.44 -3.3 l-7.48 0 l-1.44 3.3 l-1.76 0 l6.24 -14 l1.38 0 l6.26 14 l-1.76 0 z M85.08 15.3 l6.24 0 l-3.12 -7.12 z M108.3 18.5 c-1.28 1.1 -2.9 1.7 -4.7 1.7 c-3.64 0 -7.16 -2.96 -7.16 -7.2 s3.52 -7.2 7.16 -7.2 c1.78 0 3.38 0.6 4.64 1.66 l-1.02 1.16 c-0.98 -0.78 -2.24 -1.24 -3.5 -1.24 c-2.86 0 -5.56 2.32 -5.56 5.62 s2.7 5.62 5.56 5.62 c1.28 0 2.56 -0.48 3.54 -1.28 z M111.86 18.44 l6.66 0 l0 1.56 l-7.06 0 l-1.26 0 l0 -14 l1.66 0 l6.48 0 l0 1.56 l-6.48 0 l0 4.64 l5.04 0 l0 1.52 l-5.04 0 l0 4.72 z M130.92000000000002 5.76 c2.18 0 3.78 1.44 4.38 2.94 l-1.26 0.68 c-0.64 -1.28 -1.66 -2.12 -3.12 -2.12 c-1.54 0 -2.6 0.88 -2.6 2.1 c0 1.14 0.72 1.86 2.24 2.44 l1.02 0.38 c2.52 0.94 4.1 2.02 4.1 4.24 c0 2.4 -2.3 3.88 -4.68 3.88 s-4.34 -1.44 -4.88 -3.44 l1.34 -0.64 c0.48 1.48 1.74 2.56 3.54 2.56 c1.6 0 2.96 -0.92 2.96 -2.34 c0 -1.6 -1.12 -2.2 -2.78 -2.84 l-1.04 -0.4 c-2.12 -0.8 -3.48 -1.9 -3.48 -3.88 c0 -2.04 1.8 -3.56 4.26 -3.56 z M148.35999999999999 6 l-5.22 7.54 l0 6.46 l-1.66 0 l0 -6.46 l-5.22 -7.54 l1.9 0 l4.14 6.02 l4.16 -6.02 l1.9 0 z M153.54000000000002 5.76 c2.18 0 3.78 1.44 4.38 2.94 l-1.26 0.68 c-0.64 -1.28 -1.66 -2.12 -3.12 -2.12 c-1.54 0 -2.6 0.88 -2.6 2.1 c0 1.14 0.72 1.86 2.24 2.44 l1.02 0.38 c2.52 0.94 4.1 2.02 4.1 4.24 c0 2.4 -2.3 3.88 -4.68 3.88 s-4.34 -1.44 -4.88 -3.44 l1.34 -0.64 c0.48 1.48 1.74 2.56 3.54 2.56 c1.6 0 2.96 -0.92 2.96 -2.34 c0 -1.6 -1.12 -2.2 -2.78 -2.84 l-1.04 -0.4 c-2.12 -0.8 -3.48 -1.9 -3.48 -3.88 c0 -2.04 1.8 -3.56 4.26 -3.56 z M168.64000000000004 6 l0 1.56 l-3.88 0 l0 12.44 l-1.66 0 l0 -12.44 l-3.9 0 l0 -1.56 l9.44 0 z M172.30000000000004 18.44 l6.66 0 l0 1.56 l-7.06 0 l-1.26 0 l0 -14 l1.66 0 l6.48 0 l0 1.56 l-6.48 0 l0 4.64 l5.04 0 l0 1.52 l-5.04 0 l0 4.72 z M195.64000000000001 6 l0 14 l-1.7 0 l0 -10.28 l-4.92 10.28 l-1.36 0 l-4.9 -10.26 l0 10.26 l-1.7 0 l0 -14 l1.64 0 l5.66 11.72 l5.64 -11.72 l1.64 0 z M202.34 5.76 c2.18 0 3.78 1.44 4.38 2.94 l-1.26 0.68 c-0.64 -1.28 -1.66 -2.12 -3.12 -2.12 c-1.54 0 -2.6 0.88 -2.6 2.1 c0 1.14 0.72 1.86 2.24 2.44 l1.02 0.38 c2.52 0.94 4.1 2.02 4.1 4.24 c0 2.4 -2.3 3.88 -4.68 3.88 s-4.34 -1.44 -4.88 -3.44 l1.34 -0.64 c0.48 1.48 1.74 2.56 3.54 2.56 c1.6 0 2.96 -0.92 2.96 -2.34 c0 -1.6 -1.12 -2.2 -2.78 -2.84 l-1.04 -0.4 c-2.12 -0.8 -3.48 -1.9 -3.48 -3.88 c0 -2.04 1.8 -3.56 4.26 -3.56 z">
        </path>
    </g>
</svg>